<svg width="59" height="57" viewBox="0 0 59 57" fill="none" xmlns="http://www.w3.org/2000/svg">
<path d="M29.4101 56.3877C21.7991 56.3877 14.5 53.4377 9.11825 48.1867C3.73653 42.9357 0.713108 35.8138 0.713108 28.3877C0.713108 20.9616 3.73653 13.8397 9.11825 8.58871C14.5 3.33769 21.7991 0.387696 29.4101 0.387696C37.021 0.387696 44.3201 3.33769 49.7019 8.58871C55.0836 13.8397 58.107 20.9616 58.107 28.3877C58.107 35.8138 55.0836 42.9357 49.7019 48.1867C44.3201 53.4377 37.021 56.3877 29.4101 56.3877ZM41.965 30.1377C42.4406 30.1377 42.8968 29.9533 43.2332 29.6251C43.5696 29.2969 43.7585 28.8518 43.7585 28.3877C43.7585 27.9236 43.5696 27.4784 43.2332 27.1503C42.8968 26.8221 42.4406 26.6377 41.965 26.6377L21.1848 26.6377L28.8863 19.1267C29.2231 18.7981 29.4123 18.3524 29.4123 17.8877C29.4123 17.423 29.2231 16.9773 28.8863 16.6487C28.5495 16.3201 28.0928 16.1355 27.6165 16.1355C27.1402 16.1355 26.6834 16.3201 26.3467 16.6487L15.5853 27.1487C15.4183 27.3113 15.2858 27.5044 15.1953 27.717C15.1049 27.9296 15.0584 28.1575 15.0584 28.3877C15.0584 28.6179 15.1049 28.8458 15.1953 29.0584C15.2858 29.271 15.4183 29.4641 15.5853 29.6267L26.3467 40.1267C26.6834 40.4553 27.1402 40.6399 27.6165 40.6399C28.0928 40.6399 28.5495 40.4553 28.8863 40.1267C29.2231 39.7981 29.4123 39.3524 29.4123 38.8877C29.4123 38.423 29.2231 37.9773 28.8863 37.6487L21.1848 30.1377L41.965 30.1377Z" fill="#00E3A5"/>
</svg>
