<svg width="58" height="57" viewBox="0 0 58 57" fill="none" xmlns="http://www.w3.org/2000/svg">
<path d="M29.0274 0.387694C36.6383 0.387694 43.9375 3.33768 49.3192 8.5887C54.7009 13.8397 57.7243 20.9616 57.7243 28.3877C57.7243 35.8138 54.7009 42.9357 49.3192 48.1867C43.9375 53.4377 36.6383 56.3877 29.0274 56.3877C21.4165 56.3877 14.1173 53.4377 8.73558 48.1867C3.35386 42.9357 0.330443 35.8138 0.330443 28.3877C0.330443 20.9616 3.35386 13.8397 8.73558 8.5887C14.1173 3.33768 21.4165 0.387694 29.0274 0.387694ZM16.4725 26.6377C15.9968 26.6377 15.5406 26.8221 15.2042 27.1503C14.8679 27.4784 14.6789 27.9236 14.6789 28.3877C14.6789 28.8518 14.8679 29.2969 15.2042 29.6251C15.5406 29.9533 15.9968 30.1377 16.4725 30.1377L37.2527 30.1377L29.5511 37.6487C29.2143 37.9773 29.0251 38.423 29.0251 38.8877C29.0251 39.3524 29.2143 39.7981 29.5511 40.1267C29.8879 40.4553 30.3447 40.6399 30.8209 40.6399C31.2972 40.6399 31.754 40.4553 32.0908 40.1267L42.8521 29.6267C43.0192 29.4641 43.1517 29.271 43.2421 29.0584C43.3325 28.8458 43.3791 28.6179 43.3791 28.3877C43.3791 28.1575 43.3325 27.9296 43.2421 27.717C43.1517 27.5044 43.0192 27.3113 42.8521 27.1487L32.0908 16.6487C31.754 16.3201 31.2972 16.1355 30.8209 16.1355C30.3447 16.1355 29.8879 16.3201 29.5511 16.6487C29.2143 16.9773 29.0251 17.423 29.0251 17.8877C29.0251 18.3524 29.2143 18.7981 29.5511 19.1267L37.2526 26.6377L16.4725 26.6377Z" fill="#00E3A5"/>
</svg>
